<svg xmlns="http://www.w3.org/2000/svg" xmlns:xlink="http://www.w3.org/1999/xlink" width="1332" zoomAndPan="magnify" viewBox="0 0 999 1295.99994" height="1728" preserveAspectRatio="xMidYMid meet" version="1.0"><defs><g/><clipPath id="1d192c125e"><path d="M 0 0 L 998.9375 0 L 998.9375 1296 L 0 1296 Z M 0 0 " clip-rule="nonzero"/></clipPath><clipPath id="63713503a4"><path d="M 771.707031 516.832031 L 792.808594 516.832031 L 792.808594 537.929688 L 771.707031 537.929688 Z M 771.707031 516.832031 " clip-rule="nonzero"/></clipPath><clipPath id="a2136628c1"><path d="M 782.257812 516.832031 C 776.429688 516.832031 771.707031 521.554688 771.707031 527.382812 C 771.707031 533.207031 776.429688 537.929688 782.257812 537.929688 C 788.082031 537.929688 792.808594 533.207031 792.808594 527.382812 C 792.808594 521.554688 788.082031 516.832031 782.257812 516.832031 Z M 782.257812 516.832031 " clip-rule="nonzero"/></clipPath><clipPath id="64e926c634"><path d="M 773.460938 518.585938 L 791.050781 518.585938 L 791.050781 536.175781 L 773.460938 536.175781 Z M 773.460938 518.585938 " clip-rule="nonzero"/></clipPath><clipPath id="77342c0bfd"><path d="M 782.257812 518.585938 C 777.398438 518.585938 773.460938 522.523438 773.460938 527.382812 C 773.460938 532.238281 777.398438 536.175781 782.257812 536.175781 C 787.113281 536.175781 791.050781 532.238281 791.050781 527.382812 C 791.050781 522.523438 787.113281 518.585938 782.257812 518.585938 Z M 782.257812 518.585938 " clip-rule="nonzero"/></clipPath><clipPath id="766a8b39ed"><path d="M 403.230469 261.378906 L 448.292969 261.378906 L 448.292969 313.308594 L 403.230469 313.308594 Z M 403.230469 261.378906 " clip-rule="nonzero"/></clipPath><clipPath id="a36cfa60b6"><path d="M 425.761719 261.378906 C 413.316406 261.378906 403.230469 272.984375 403.230469 287.300781 C 403.230469 301.617188 413.316406 313.222656 425.761719 313.222656 C 438.207031 313.222656 448.292969 301.617188 448.292969 287.300781 C 448.292969 272.984375 438.207031 261.378906 425.761719 261.378906 Z M 425.761719 261.378906 " clip-rule="nonzero"/></clipPath><clipPath id="f4414c53cf"><path d="M 406.976562 265.691406 L 444.546875 265.691406 L 444.546875 308.984375 L 406.976562 308.984375 Z M 406.976562 265.691406 " clip-rule="nonzero"/></clipPath><clipPath id="8589eaead0"><path d="M 425.761719 265.691406 C 415.386719 265.691406 406.976562 275.367188 406.976562 287.300781 C 406.976562 299.234375 415.386719 308.910156 425.761719 308.910156 C 436.136719 308.910156 444.546875 299.234375 444.546875 287.300781 C 444.546875 275.367188 436.136719 265.691406 425.761719 265.691406 Z M 425.761719 265.691406 " clip-rule="nonzero"/></clipPath><clipPath id="4248f34a98"><path d="M 655.609375 427.386719 L 707.066406 427.386719 L 707.066406 488.492188 L 655.609375 488.492188 Z M 655.609375 427.386719 " clip-rule="nonzero"/></clipPath><clipPath id="24684467a4"><path d="M 681.339844 427.386719 C 667.128906 427.386719 655.609375 441.03125 655.609375 457.859375 C 655.609375 474.6875 667.128906 488.328125 681.339844 488.328125 C 695.550781 488.328125 707.066406 474.6875 707.066406 457.859375 C 707.066406 441.03125 695.550781 427.386719 681.339844 427.386719 Z M 681.339844 427.386719 " clip-rule="nonzero"/></clipPath></defs><rect x="-99.9" width="1198.8" fill="#ffffff" y="-129.599994" height="1555.199927" fill-opacity="1"/><g clip-path="url(#1d192c125e)"><path fill="#000000" d="M 0 0 L 998.9375 0 L 998.9375 1295.496094 L 0 1295.496094 Z M 0 0 " fill-opacity="1" fill-rule="nonzero"/></g><g fill="#31cfa4" fill-opacity="1"><g transform="translate(614.671492, 578.517887)"><g><path d="M 3.921875 0 L 3.921875 -27.859375 L 8.203125 -27.859375 L 8.203125 0 Z M 6.09375 -32.5 C 5.257812 -32.5 4.539062 -32.78125 3.9375 -33.34375 C 3.34375 -33.914062 3.046875 -34.597656 3.046875 -35.390625 C 3.046875 -36.191406 3.34375 -36.875 3.9375 -37.4375 C 4.539062 -38.007812 5.257812 -38.296875 6.09375 -38.296875 C 6.925781 -38.296875 7.640625 -38.007812 8.234375 -37.4375 C 8.835938 -36.875 9.140625 -36.191406 9.140625 -35.390625 C 9.140625 -34.597656 8.835938 -33.914062 8.234375 -33.34375 C 7.640625 -32.78125 6.925781 -32.5 6.09375 -32.5 Z M 6.09375 -32.5 "/></g></g></g><g fill="#31cfa4" fill-opacity="1"><g transform="translate(626.781433, 578.517887)"><g><path d="M 16.03125 -27.859375 L 16.03125 -24.21875 L 10.078125 -24.21875 L 10.078125 -7.984375 C 10.078125 -6.773438 10.253906 -5.867188 10.609375 -5.265625 C 10.972656 -4.671875 11.4375 -4.269531 12 -4.0625 C 12.5625 -3.863281 13.15625 -3.765625 13.78125 -3.765625 C 14.25 -3.765625 14.632812 -3.789062 14.9375 -3.84375 C 15.238281 -3.90625 15.484375 -3.953125 15.671875 -3.984375 L 16.53125 -0.140625 C 16.25 -0.0351562 15.847656 0.0703125 15.328125 0.1875 C 14.804688 0.300781 14.144531 0.359375 13.34375 0.359375 C 12.132812 0.359375 10.953125 0.0976562 9.796875 -0.421875 C 8.640625 -0.941406 7.679688 -1.734375 6.921875 -2.796875 C 6.171875 -3.859375 5.796875 -5.195312 5.796875 -6.8125 L 5.796875 -24.21875 L 1.59375 -24.21875 L 1.59375 -27.859375 L 5.796875 -27.859375 L 5.796875 -34.53125 L 10.078125 -34.53125 L 10.078125 -27.859375 Z M 16.03125 -27.859375 "/></g></g></g><g fill="#31cfa4" fill-opacity="1"><g transform="translate(645.345177, 578.517887)"><g><path d="M 3.921875 0 L 3.921875 -27.859375 L 8.203125 -27.859375 L 8.203125 0 Z M 6.09375 -32.5 C 5.257812 -32.5 4.539062 -32.78125 3.9375 -33.34375 C 3.34375 -33.914062 3.046875 -34.597656 3.046875 -35.390625 C 3.046875 -36.191406 3.34375 -36.875 3.9375 -37.4375 C 4.539062 -38.007812 5.257812 -38.296875 6.09375 -38.296875 C 6.925781 -38.296875 7.640625 -38.007812 8.234375 -37.4375 C 8.835938 -36.875 9.140625 -36.191406 9.140625 -35.390625 C 9.140625 -34.597656 8.835938 -33.914062 8.234375 -33.34375 C 7.640625 -32.78125 6.925781 -32.5 6.09375 -32.5 Z M 6.09375 -32.5 "/></g></g></g><g fill="#31cfa4" fill-opacity="1"><g transform="translate(657.455118, 578.517887)"><g><path d="M 8.203125 -16.75 L 8.203125 0 L 3.921875 0 L 3.921875 -27.859375 L 8.046875 -27.859375 L 8.046875 -23.5 L 8.40625 -23.5 C 9.0625 -24.914062 10.050781 -26.054688 11.375 -26.921875 C 12.707031 -27.785156 14.425781 -28.21875 16.53125 -28.21875 C 19.351562 -28.21875 21.628906 -27.351562 23.359375 -25.625 C 25.097656 -23.894531 25.96875 -21.253906 25.96875 -17.703125 L 25.96875 0 L 21.6875 0 L 21.6875 -17.40625 C 21.6875 -19.59375 21.117188 -21.300781 19.984375 -22.53125 C 18.847656 -23.757812 17.285156 -24.375 15.296875 -24.375 C 13.253906 -24.375 11.5625 -23.710938 10.21875 -22.390625 C 8.875 -21.066406 8.203125 -19.1875 8.203125 -16.75 Z M 8.203125 -16.75 "/></g></g></g><g fill="#31cfa4" fill-opacity="1"><g transform="translate(687.331146, 578.517887)"><g><path d="M 15.59375 0.578125 C 12.90625 0.578125 10.59375 -0.015625 8.65625 -1.203125 C 6.71875 -2.390625 5.222656 -4.054688 4.171875 -6.203125 C 3.128906 -8.347656 2.609375 -10.847656 2.609375 -13.703125 C 2.609375 -16.554688 3.128906 -19.070312 4.171875 -21.25 C 5.222656 -23.4375 6.6875 -25.144531 8.5625 -26.375 C 10.445312 -27.601562 12.644531 -28.21875 15.15625 -28.21875 C 16.601562 -28.21875 18.035156 -27.972656 19.453125 -27.484375 C 20.867188 -27.003906 22.15625 -26.222656 23.3125 -25.140625 C 24.476562 -24.054688 25.40625 -22.625 26.09375 -20.84375 C 26.78125 -19.070312 27.125 -16.882812 27.125 -14.28125 L 27.125 -12.46875 L 6.90625 -12.46875 C 7 -9.5 7.84375 -7.222656 9.4375 -5.640625 C 11.03125 -4.054688 13.082031 -3.265625 15.59375 -3.265625 C 17.269531 -3.265625 18.710938 -3.625 19.921875 -4.34375 C 21.128906 -5.070312 22.007812 -6.160156 22.5625 -7.609375 L 26.6875 -6.453125 C 26.039062 -4.347656 24.738281 -2.648438 22.78125 -1.359375 C 20.820312 -0.0664062 18.425781 0.578125 15.59375 0.578125 Z M 6.90625 -16.171875 L 22.78125 -16.171875 C 22.78125 -18.523438 22.085938 -20.476562 20.703125 -22.03125 C 19.328125 -23.59375 17.476562 -24.375 15.15625 -24.375 C 13.53125 -24.375 12.117188 -23.988281 10.921875 -23.21875 C 9.722656 -22.457031 8.773438 -21.453125 8.078125 -20.203125 C 7.390625 -18.953125 7 -17.609375 6.90625 -16.171875 Z M 6.90625 -16.171875 "/></g></g></g><g fill="#31cfa4" fill-opacity="1"><g transform="translate(717.062145, 578.517887)"><g><path d="M 3.921875 0 L 3.921875 -27.859375 L 8.046875 -27.859375 L 8.046875 -23.640625 L 8.34375 -23.640625 C 8.832031 -25.023438 9.742188 -26.144531 11.078125 -27 C 12.410156 -27.851562 13.914062 -28.28125 15.59375 -28.28125 C 16.363281 -28.28125 17.039062 -28.191406 17.625 -28.015625 C 18.207031 -27.835938 18.710938 -27.585938 19.140625 -27.265625 L 17.703125 -23.640625 C 17.398438 -23.796875 17.046875 -23.921875 16.640625 -24.015625 C 16.234375 -24.109375 15.765625 -24.15625 15.234375 -24.15625 C 13.203125 -24.15625 11.519531 -23.535156 10.1875 -22.296875 C 8.863281 -21.054688 8.203125 -19.5 8.203125 -17.625 L 8.203125 0 Z M 3.921875 0 "/></g></g></g><g fill="#31cfa4" fill-opacity="1"><g transform="translate(736.641101, 578.517887)"><g><path d="M 12.109375 0.65625 C 10.347656 0.65625 8.75 0.320312 7.3125 -0.34375 C 5.875 -1.019531 4.726562 -1.992188 3.875 -3.265625 C 3.03125 -4.546875 2.609375 -6.09375 2.609375 -7.90625 C 2.609375 -9.5 2.921875 -10.796875 3.546875 -11.796875 C 4.179688 -12.796875 5.023438 -13.578125 6.078125 -14.140625 C 7.128906 -14.710938 8.289062 -15.140625 9.5625 -15.421875 C 10.84375 -15.703125 12.128906 -15.929688 13.421875 -16.109375 C 15.109375 -16.316406 16.476562 -16.476562 17.53125 -16.59375 C 18.59375 -16.707031 19.367188 -16.90625 19.859375 -17.1875 C 20.347656 -17.46875 20.59375 -17.953125 20.59375 -18.640625 L 20.59375 -18.78125 C 20.59375 -20.570312 20.101562 -21.960938 19.125 -22.953125 C 18.15625 -23.941406 16.6875 -24.4375 14.71875 -24.4375 C 12.675781 -24.4375 11.070312 -23.988281 9.90625 -23.09375 C 8.75 -22.207031 7.9375 -21.253906 7.46875 -20.234375 L 3.40625 -21.6875 C 4.132812 -23.375 5.101562 -24.691406 6.3125 -25.640625 C 7.53125 -26.597656 8.859375 -27.265625 10.296875 -27.640625 C 11.742188 -28.023438 13.171875 -28.21875 14.578125 -28.21875 C 15.472656 -28.21875 16.503906 -28.109375 17.671875 -27.890625 C 18.835938 -27.679688 19.96875 -27.25 21.0625 -26.59375 C 22.15625 -25.945312 23.0625 -24.960938 23.78125 -23.640625 C 24.507812 -22.328125 24.875 -20.5625 24.875 -18.34375 L 24.875 0 L 20.59375 0 L 20.59375 -3.765625 L 20.375 -3.765625 C 20.09375 -3.160156 19.613281 -2.515625 18.9375 -1.828125 C 18.257812 -1.140625 17.359375 -0.550781 16.234375 -0.0625 C 15.109375 0.414062 13.734375 0.65625 12.109375 0.65625 Z M 12.765625 -3.1875 C 14.453125 -3.1875 15.878906 -3.519531 17.046875 -4.1875 C 18.210938 -4.851562 19.09375 -5.710938 19.6875 -6.765625 C 20.289062 -7.816406 20.59375 -8.921875 20.59375 -10.078125 L 20.59375 -14 C 20.414062 -13.78125 20.019531 -13.582031 19.40625 -13.40625 C 18.800781 -13.226562 18.101562 -13.078125 17.3125 -12.953125 C 16.519531 -12.828125 15.75 -12.71875 15 -12.625 C 14.257812 -12.539062 13.660156 -12.46875 13.203125 -12.40625 C 12.085938 -12.257812 11.050781 -12.023438 10.09375 -11.703125 C 9.132812 -11.378906 8.359375 -10.898438 7.765625 -10.265625 C 7.179688 -9.640625 6.890625 -8.78125 6.890625 -7.6875 C 6.890625 -6.195312 7.441406 -5.070312 8.546875 -4.3125 C 9.648438 -3.5625 11.054688 -3.1875 12.765625 -3.1875 Z M 12.765625 -3.1875 "/></g></g></g><g fill="#31cfa4" fill-opacity="1"><g transform="translate(765.429409, 578.517887)"><g><path d="M 7.03125 0.296875 C 6.132812 0.296875 5.363281 -0.0195312 4.71875 -0.65625 C 4.082031 -1.300781 3.765625 -2.070312 3.765625 -2.96875 C 3.765625 -3.863281 4.082031 -4.628906 4.71875 -5.265625 C 5.363281 -5.910156 6.132812 -6.234375 7.03125 -6.234375 C 7.925781 -6.234375 8.691406 -5.910156 9.328125 -5.265625 C 9.972656 -4.628906 10.296875 -3.863281 10.296875 -2.96875 C 10.296875 -2.070312 9.972656 -1.300781 9.328125 -0.65625 C 8.691406 -0.0195312 7.925781 0.296875 7.03125 0.296875 Z M 7.03125 0.296875 "/></g></g></g><g fill="#31cfa4" fill-opacity="1"><g transform="translate(779.500357, 578.517887)"><g/></g></g><g fill="#31cfa4" fill-opacity="1"><g transform="translate(793.858251, 578.517887)"><g/></g></g><g fill="#31cfa4" fill-opacity="1"><g transform="translate(786.849137, 578.517887)"><g><path d="M 15.234375 0.578125 C 12.710938 0.578125 10.503906 -0.0195312 8.609375 -1.21875 C 6.722656 -2.414062 5.25 -4.085938 4.1875 -6.234375 C 3.132812 -8.390625 2.609375 -10.90625 2.609375 -13.78125 C 2.609375 -16.6875 3.132812 -19.21875 4.1875 -21.375 C 5.25 -23.539062 6.722656 -25.222656 8.609375 -26.421875 C 10.503906 -27.617188 12.710938 -28.21875 15.234375 -28.21875 C 17.742188 -28.21875 19.941406 -27.617188 21.828125 -26.421875 C 23.722656 -25.222656 25.203125 -23.539062 26.265625 -21.375 C 27.328125 -19.21875 27.859375 -16.6875 27.859375 -13.78125 C 27.859375 -10.90625 27.328125 -8.390625 26.265625 -6.234375 C 25.203125 -4.085938 23.722656 -2.414062 21.828125 -1.21875 C 19.941406 -0.0195312 17.742188 0.578125 15.234375 0.578125 Z M 15.234375 -3.265625 C 17.140625 -3.265625 18.707031 -3.753906 19.9375 -4.734375 C 21.175781 -5.710938 22.09375 -7 22.6875 -8.59375 C 23.28125 -10.1875 23.578125 -11.914062 23.578125 -13.78125 C 23.578125 -15.644531 23.28125 -17.378906 22.6875 -18.984375 C 22.09375 -20.585938 21.175781 -21.882812 19.9375 -22.875 C 18.707031 -23.875 17.140625 -24.375 15.234375 -24.375 C 13.316406 -24.375 11.742188 -23.875 10.515625 -22.875 C 9.285156 -21.882812 8.375 -20.585938 7.78125 -18.984375 C 7.1875 -17.378906 6.890625 -15.644531 6.890625 -13.78125 C 6.890625 -11.914062 7.1875 -10.1875 7.78125 -8.59375 C 8.375 -7 9.285156 -5.710938 10.515625 -4.734375 C 11.742188 -3.753906 13.316406 -3.265625 15.234375 -3.265625 Z M 15.234375 -3.265625 "/></g></g></g><g clip-path="url(#63713503a4)"><g clip-path="url(#a2136628c1)"><path fill="#ffffff" d="M 771.707031 516.832031 L 792.808594 516.832031 L 792.808594 537.929688 L 771.707031 537.929688 Z M 771.707031 516.832031 " fill-opacity="1" fill-rule="nonzero"/></g></g><path stroke-linecap="round" transform="matrix(0, -0.75, 0.75, 0, 780.751946, 581.316601)" fill="none" stroke-linejoin="miter" d="M 2.000259 1.997405 L 77.807558 1.997405 " stroke="#ffffff" stroke-width="4" stroke-opacity="1" stroke-miterlimit="4"/><g clip-path="url(#64e926c634)"><g clip-path="url(#77342c0bfd)"><path fill="#e8762f" d="M 773.460938 518.585938 L 791.050781 518.585938 L 791.050781 536.175781 L 773.460938 536.175781 Z M 773.460938 518.585938 " fill-opacity="1" fill-rule="nonzero"/></g></g><g fill="#ffffff" fill-opacity="1"><g transform="translate(91.73798, 377.354536)"><g><path d="M 12.140625 -74.890625 L 34.375 -11.84375 L 35.25 -11.84375 L 57.484375 -74.890625 L 67 -74.890625 L 39.5 0 L 30.140625 0 L 2.640625 -74.890625 Z M 12.140625 -74.890625 "/></g></g></g><g fill="#ffffff" fill-opacity="1"><g transform="translate(161.361379, 377.354536)"><g><path d="M 30.71875 1.171875 C 25.644531 1.171875 21.203125 -0.0351562 17.390625 -2.453125 C 13.578125 -4.867188 10.601562 -8.242188 8.46875 -12.578125 C 6.332031 -16.921875 5.265625 -21.992188 5.265625 -27.796875 C 5.265625 -33.648438 6.332031 -38.753906 8.46875 -43.109375 C 10.601562 -47.472656 13.578125 -50.863281 17.390625 -53.28125 C 21.203125 -55.695312 25.644531 -56.90625 30.71875 -56.90625 C 35.789062 -56.90625 40.234375 -55.695312 44.046875 -53.28125 C 47.867188 -50.863281 50.84375 -47.472656 52.96875 -43.109375 C 55.101562 -38.753906 56.171875 -33.648438 56.171875 -27.796875 C 56.171875 -21.992188 55.101562 -16.921875 52.96875 -12.578125 C 50.84375 -8.242188 47.867188 -4.867188 44.046875 -2.453125 C 40.234375 -0.0351562 35.789062 1.171875 30.71875 1.171875 Z M 30.71875 -6.578125 C 34.570312 -6.578125 37.738281 -7.5625 40.21875 -9.53125 C 42.707031 -11.507812 44.550781 -14.109375 45.75 -17.328125 C 46.945312 -20.546875 47.546875 -24.035156 47.546875 -27.796875 C 47.546875 -31.546875 46.945312 -35.039062 45.75 -38.28125 C 44.550781 -41.53125 42.707031 -44.15625 40.21875 -46.15625 C 37.738281 -48.15625 34.570312 -49.15625 30.71875 -49.15625 C 26.863281 -49.15625 23.691406 -48.15625 21.203125 -46.15625 C 18.722656 -44.15625 16.882812 -41.53125 15.6875 -38.28125 C 14.488281 -35.039062 13.890625 -31.546875 13.890625 -27.796875 C 13.890625 -24.035156 14.488281 -20.546875 15.6875 -17.328125 C 16.882812 -14.109375 18.722656 -11.507812 21.203125 -9.53125 C 23.691406 -7.5625 26.863281 -6.578125 30.71875 -6.578125 Z M 30.71875 -6.578125 "/></g></g></g><g fill="#ffffff" fill-opacity="1"><g transform="translate(222.793785, 377.354536)"><g><path d="M 32.328125 -56.171875 L 32.328125 -48.859375 L 20.328125 -48.859375 L 20.328125 -16.09375 C 20.328125 -13.65625 20.6875 -11.832031 21.40625 -10.625 C 22.125 -9.414062 23.050781 -8.609375 24.1875 -8.203125 C 25.320312 -7.804688 26.523438 -7.609375 27.796875 -7.609375 C 28.742188 -7.609375 29.519531 -7.660156 30.125 -7.765625 C 30.738281 -7.878906 31.226562 -7.972656 31.59375 -8.046875 L 33.359375 -0.296875 C 32.765625 -0.078125 31.941406 0.144531 30.890625 0.375 C 29.847656 0.613281 28.523438 0.734375 26.921875 0.734375 C 24.484375 0.734375 22.097656 0.210938 19.765625 -0.828125 C 17.441406 -1.878906 15.515625 -3.476562 13.984375 -5.625 C 12.460938 -7.769531 11.703125 -10.476562 11.703125 -13.75 L 11.703125 -48.859375 L 3.21875 -48.859375 L 3.21875 -56.171875 L 11.703125 -56.171875 L 11.703125 -69.625 L 20.328125 -69.625 L 20.328125 -56.171875 Z M 32.328125 -56.171875 "/></g></g></g><g fill="#ffffff" fill-opacity="1"><g transform="translate(260.238301, 377.354536)"><g><path d="M 31.453125 1.171875 C 26.035156 1.171875 21.367188 -0.0234375 17.453125 -2.421875 C 13.546875 -4.828125 10.535156 -8.191406 8.421875 -12.515625 C 6.316406 -16.847656 5.265625 -21.890625 5.265625 -27.640625 C 5.265625 -33.398438 6.316406 -38.476562 8.421875 -42.875 C 10.535156 -47.28125 13.488281 -50.71875 17.28125 -53.1875 C 21.070312 -55.664062 25.503906 -56.90625 30.578125 -56.90625 C 33.503906 -56.90625 36.390625 -56.414062 39.234375 -55.4375 C 42.085938 -54.46875 44.6875 -52.890625 47.03125 -50.703125 C 49.375 -48.523438 51.238281 -45.644531 52.625 -42.0625 C 54.007812 -38.476562 54.703125 -34.0625 54.703125 -28.8125 L 54.703125 -25.15625 L 13.9375 -25.15625 C 14.125 -19.164062 15.820312 -14.570312 19.03125 -11.375 C 22.238281 -8.175781 26.378906 -6.578125 31.453125 -6.578125 C 34.835938 -6.578125 37.75 -7.304688 40.1875 -8.765625 C 42.625 -10.234375 44.394531 -12.429688 45.5 -15.359375 L 53.828125 -13.015625 C 52.515625 -8.773438 49.882812 -5.347656 45.9375 -2.734375 C 41.988281 -0.128906 37.160156 1.171875 31.453125 1.171875 Z M 13.9375 -32.625 L 45.9375 -32.625 C 45.9375 -37.375 44.546875 -41.316406 41.765625 -44.453125 C 38.984375 -47.585938 35.253906 -49.15625 30.578125 -49.15625 C 27.285156 -49.15625 24.429688 -48.382812 22.015625 -46.84375 C 19.597656 -45.3125 17.691406 -43.28125 16.296875 -40.75 C 14.910156 -38.226562 14.125 -35.519531 13.9375 -32.625 Z M 13.9375 -32.625 "/></g></g></g><g fill="#ffffff" fill-opacity="1"><g transform="translate(320.208037, 377.354536)"><g><path d="M 47.6875 -43.59375 L 39.9375 -41.40625 C 39.175781 -43.351562 37.90625 -45.175781 36.125 -46.875 C 34.351562 -48.582031 31.578125 -49.4375 27.796875 -49.4375 C 24.359375 -49.4375 21.5 -48.648438 19.21875 -47.078125 C 16.9375 -45.515625 15.796875 -43.523438 15.796875 -41.109375 C 15.796875 -38.960938 16.578125 -37.265625 18.140625 -36.015625 C 19.703125 -34.773438 22.140625 -33.742188 25.453125 -32.921875 L 33.796875 -30.859375 C 43.742188 -28.421875 48.71875 -23.351562 48.71875 -15.65625 C 48.71875 -12.4375 47.796875 -9.554688 45.953125 -7.015625 C 44.109375 -4.484375 41.539062 -2.484375 38.25 -1.015625 C 34.957031 0.441406 31.128906 1.171875 26.765625 1.171875 C 21.035156 1.171875 16.289062 -0.0703125 12.53125 -2.5625 C 8.78125 -5.050781 6.40625 -8.679688 5.40625 -13.453125 L 13.609375 -15.5 C 15.140625 -9.457031 19.476562 -6.4375 26.625 -6.4375 C 30.644531 -6.4375 33.84375 -7.296875 36.21875 -9.015625 C 38.601562 -10.734375 39.796875 -12.800781 39.796875 -15.21875 C 39.796875 -19.1875 37.015625 -21.816406 31.453125 -23.109375 L 22.09375 -25.3125 C 16.945312 -26.53125 13.171875 -28.425781 10.765625 -31 C 8.367188 -33.570312 7.171875 -36.796875 7.171875 -40.671875 C 7.171875 -43.835938 8.066406 -46.640625 9.859375 -49.078125 C 11.648438 -51.515625 14.097656 -53.425781 17.203125 -54.8125 C 20.316406 -56.207031 23.847656 -56.90625 27.796875 -56.90625 C 33.347656 -56.90625 37.710938 -55.6875 40.890625 -53.25 C 44.078125 -50.8125 46.34375 -47.59375 47.6875 -43.59375 Z M 47.6875 -43.59375 "/></g></g></g><g fill="#ffffff" fill-opacity="1"><g transform="translate(374.042643, 377.354536)"><g/></g></g><g fill="#ffffff" fill-opacity="1"><g transform="translate(403.003631, 377.354536)"><g/></g></g><g fill="#ffffff" fill-opacity="1"><g transform="translate(431.968422, 377.354536)"><g><path d="M 16.53125 -33.796875 L 16.53125 0 L 7.90625 0 L 7.90625 -56.171875 L 16.234375 -56.171875 L 16.234375 -47.390625 L 16.96875 -47.390625 C 18.28125 -50.242188 20.273438 -52.539062 22.953125 -54.28125 C 25.640625 -56.03125 29.109375 -56.90625 33.359375 -56.90625 C 39.035156 -56.90625 43.625 -55.160156 47.125 -51.671875 C 50.625 -48.191406 52.375 -42.863281 52.375 -35.6875 L 52.375 0 L 43.734375 0 L 43.734375 -35.109375 C 43.734375 -39.523438 42.585938 -42.96875 40.296875 -45.4375 C 38.003906 -47.914062 34.859375 -49.15625 30.859375 -49.15625 C 26.742188 -49.15625 23.328125 -47.816406 20.609375 -45.140625 C 17.890625 -42.472656 16.53125 -38.691406 16.53125 -33.796875 Z M 16.53125 -33.796875 "/></g></g></g><g fill="#ffffff" fill-opacity="1"><g transform="translate(492.230693, 377.354536)"><g><path d="M 20.765625 -10.234375 L 20.1875 -6.296875 C 19.769531 -3.515625 19.140625 -0.539062 18.296875 2.625 C 17.460938 5.800781 16.59375 8.789062 15.6875 11.59375 C 14.78125 14.394531 14.035156 16.625 13.453125 18.28125 L 6.875 18.28125 C 7.1875 16.71875 7.597656 14.65625 8.109375 12.09375 C 8.628906 9.539062 9.148438 6.6875 9.671875 3.53125 C 10.191406 0.375 10.625 -2.847656 10.96875 -6.140625 L 11.40625 -10.234375 Z M 20.765625 -10.234375 "/></g></g></g><g fill="#ffffff" fill-opacity="1"><g transform="translate(521.054352, 377.354536)"><g/></g></g><g clip-path="url(#766a8b39ed)"><g clip-path="url(#a36cfa60b6)"><path fill="#ffffff" d="M 403.230469 261.378906 L 448.292969 261.378906 L 448.292969 313.308594 L 403.230469 313.308594 Z M 403.230469 261.378906 " fill-opacity="1" fill-rule="nonzero"/></g></g><path stroke-linecap="round" transform="matrix(0, -0.794104, 0.794104, 0, 422.184058, 419.825559)" fill="none" stroke-linejoin="miter" d="M 4.497712 4.500359 L 180.698585 4.500359 " stroke="#ffffff" stroke-width="9" stroke-opacity="1" stroke-miterlimit="4"/><g clip-path="url(#f4414c53cf)"><g clip-path="url(#8589eaead0)"><path fill="#e8762f" d="M 406.976562 265.691406 L 444.546875 265.691406 L 444.546875 308.984375 L 406.976562 308.984375 Z M 406.976562 265.691406 " fill-opacity="1" fill-rule="nonzero"/></g></g><g fill="#ffffff" fill-opacity="1"><g transform="translate(91.73798, 494.150884)"><g><path d="M 66.1875 0 L 56.9375 0 L 50.140625 -20.171875 L 18.8125 -20.171875 L 11.96875 0 L 2.921875 0 L 28.5625 -73.53125 L 40.53125 -73.53125 Z M 33.84375 -64.625 L 21.21875 -27.40625 L 47.671875 -27.40625 L 35.109375 -64.625 Z M 33.84375 -64.625 "/></g></g></g><g fill="#ffffff" fill-opacity="1"><g transform="translate(160.837892, 494.150884)"><g><path d="M 28.765625 1.0625 C 24.304688 1.0625 20.375 0 16.96875 -2.125 C 13.570312 -4.257812 10.90625 -7.472656 8.96875 -11.765625 C 7.039062 -16.054688 6.078125 -21.375 6.078125 -27.71875 C 6.078125 -34.050781 7.082031 -39.367188 9.09375 -43.671875 C 11.113281 -47.984375 13.890625 -51.203125 17.421875 -53.328125 C 20.960938 -55.460938 25.0625 -56.53125 29.71875 -56.53125 C 33.40625 -56.53125 36.722656 -55.832031 39.671875 -54.4375 C 42.628906 -53.050781 45.164062 -50.765625 47.28125 -47.578125 L 48.328125 -47.78125 L 48.328125 -77.75 L 56.53125 -77.75 L 56.53125 0 L 48.328125 0 L 48.328125 -8.09375 L 47.28125 -8.296875 C 45.46875 -5.546875 43.007812 -3.296875 39.90625 -1.546875 C 36.800781 0.191406 33.085938 1.0625 28.765625 1.0625 Z M 31.328125 -6.28125 C 36.492188 -6.28125 40.617188 -8.050781 43.703125 -11.59375 C 46.785156 -15.132812 48.328125 -20.507812 48.328125 -27.71875 C 48.328125 -34.957031 46.785156 -40.34375 43.703125 -43.875 C 40.617188 -47.414062 36.492188 -49.1875 31.328125 -49.1875 C 26.003906 -49.1875 21.898438 -47.457031 19.015625 -44 C 16.128906 -40.550781 14.6875 -35.125 14.6875 -27.71875 C 14.6875 -13.425781 20.234375 -6.28125 31.328125 -6.28125 Z M 31.328125 -6.28125 "/></g></g></g><g fill="#ffffff" fill-opacity="1"><g transform="translate(227.071219, 494.150884)"><g><path d="M 35.109375 0 L 23.84375 0 L 2.71875 -55.46875 L 11.5625 -55.46875 L 29.015625 -9.359375 L 30.171875 -9.359375 L 47.484375 -55.46875 L 56.125 -55.46875 Z M 35.109375 0 "/></g></g></g><g fill="#ffffff" fill-opacity="1"><g transform="translate(285.861482, 494.150884)"><g><path d="M 52.859375 -25.84375 L 14.734375 -25.84375 C 14.972656 -19.101562 16.59375 -14.15625 19.59375 -11 C 22.59375 -7.851562 26.707031 -6.28125 31.9375 -6.28125 C 35.894531 -6.28125 39.078125 -6.984375 41.484375 -8.390625 C 43.898438 -9.804688 45.796875 -12.019531 47.171875 -15.03125 L 48.234375 -15.03125 L 53.5625 -11.875 C 51.945312 -7.84375 49.367188 -4.675781 45.828125 -2.375 C 42.296875 -0.0820312 37.664062 1.0625 31.9375 1.0625 C 26.570312 1.0625 21.960938 0.00390625 18.109375 -2.109375 C 14.253906 -4.222656 11.285156 -7.425781 9.203125 -11.71875 C 7.117188 -16.007812 6.078125 -21.34375 6.078125 -27.71875 C 6.078125 -34.019531 7.175781 -39.332031 9.375 -43.65625 C 11.570312 -47.976562 14.570312 -51.203125 18.375 -53.328125 C 22.1875 -55.460938 26.539062 -56.53125 31.4375 -56.53125 C 38.539062 -56.53125 44.085938 -54.523438 48.078125 -50.515625 C 52.066406 -46.515625 54.078125 -40.570312 54.109375 -32.6875 C 54.109375 -29.601562 54.046875 -27.523438 53.921875 -26.453125 Z M 46.015625 -32.6875 C 45.878906 -38.59375 44.570312 -42.882812 42.09375 -45.5625 C 39.613281 -48.25 36.0625 -49.59375 31.4375 -49.59375 C 26.570312 -49.59375 22.753906 -48.238281 19.984375 -45.53125 C 17.222656 -42.832031 15.539062 -38.550781 14.9375 -32.6875 Z M 46.015625 -32.6875 "/></g></g></g><g fill="#ffffff" fill-opacity="1"><g transform="translate(345.003765, 494.150884)"><g><path d="M 9.65625 0 L 9.65625 -55.46875 L 17.453125 -55.46875 L 17.453125 -46.765625 L 18.515625 -46.515625 C 20.359375 -49.773438 22.710938 -52.257812 25.578125 -53.96875 C 28.441406 -55.675781 31.9375 -56.53125 36.0625 -56.53125 C 42.726562 -56.53125 47.5625 -54.828125 50.5625 -51.421875 C 53.570312 -48.015625 55.078125 -42.773438 55.078125 -35.703125 L 55.078125 0 L 46.875 0 L 46.875 -35.5 C 46.875 -38.851562 46.445312 -41.546875 45.59375 -43.578125 C 44.738281 -45.609375 43.410156 -47.082031 41.609375 -48 C 39.816406 -48.925781 37.460938 -49.390625 34.546875 -49.390625 C 29.554688 -49.390625 25.523438 -47.738281 22.453125 -44.4375 C 19.390625 -41.132812 17.859375 -35.8125 17.859375 -28.46875 L 17.859375 0 Z M 9.65625 0 "/></g></g></g><g fill="#ffffff" fill-opacity="1"><g transform="translate(408.873419, 494.150884)"><g><path d="M 37.515625 -8.796875 L 40.140625 -2.921875 C 38.828125 -1.609375 37.101562 -0.617188 34.96875 0.046875 C 32.84375 0.722656 30.539062 1.0625 28.0625 1.0625 C 17.46875 1.0625 12.171875 -4.300781 12.171875 -15.03125 L 12.171875 -48.78125 L 2.515625 -48.78125 L 2.515625 -55.53125 L 12.171875 -55.53125 L 12.171875 -67.234375 L 20.375 -68.59375 L 20.375 -55.53125 L 38.21875 -55.53125 L 38.21875 -48.78125 L 20.375 -48.78125 L 20.375 -15.84375 C 20.375 -9.46875 23.140625 -6.28125 28.671875 -6.28125 C 31.679688 -6.28125 34.28125 -7.117188 36.46875 -8.796875 Z M 37.515625 -8.796875 "/></g></g></g><g fill="#ffffff" fill-opacity="1"><g transform="translate(451.117907, 494.150884)"><g><path d="M 27.40625 1.0625 C 21.132812 1.0625 16.460938 -0.597656 13.390625 -3.921875 C 10.328125 -7.242188 8.796875 -12.109375 8.796875 -18.515625 L 8.796875 -55.46875 L 17 -55.46875 L 17 -18.703125 C 17 -10.285156 20.957031 -6.078125 28.875 -6.078125 C 33.894531 -6.078125 37.863281 -7.71875 40.78125 -11 C 43.695312 -14.289062 45.15625 -19.625 45.15625 -27 L 45.15625 -55.46875 L 53.359375 -55.46875 L 53.359375 0 L 45.609375 0 L 45.609375 -8.703125 L 44.5625 -8.953125 C 42.644531 -5.566406 40.351562 -3.050781 37.6875 -1.40625 C 35.03125 0.238281 31.601562 1.0625 27.40625 1.0625 Z M 27.40625 1.0625 "/></g></g></g><g fill="#ffffff" fill-opacity="1"><g transform="translate(514.132595, 494.150884)"><g><path d="M 9.65625 0 L 9.65625 -55.46875 L 17.453125 -55.46875 L 17.453125 -46.765625 L 18.515625 -46.515625 C 21.085938 -52.816406 25.945312 -55.96875 33.09375 -55.96875 C 36.882812 -55.96875 39.71875 -55.285156 41.59375 -53.921875 L 39.484375 -46.96875 L 38.46875 -46.765625 C 36.394531 -47.804688 34.117188 -48.328125 31.640625 -48.328125 C 27.210938 -48.328125 23.804688 -46.664062 21.421875 -43.34375 C 19.046875 -40.03125 17.859375 -34.648438 17.859375 -27.203125 L 17.859375 0 Z M 9.65625 0 "/></g></g></g><g fill="#ffffff" fill-opacity="1"><g transform="translate(556.980553, 494.150884)"><g><path d="M 52.859375 -25.84375 L 14.734375 -25.84375 C 14.972656 -19.101562 16.59375 -14.15625 19.59375 -11 C 22.59375 -7.851562 26.707031 -6.28125 31.9375 -6.28125 C 35.894531 -6.28125 39.078125 -6.984375 41.484375 -8.390625 C 43.898438 -9.804688 45.796875 -12.019531 47.171875 -15.03125 L 48.234375 -15.03125 L 53.5625 -11.875 C 51.945312 -7.84375 49.367188 -4.675781 45.828125 -2.375 C 42.296875 -0.0820312 37.664062 1.0625 31.9375 1.0625 C 26.570312 1.0625 21.960938 0.00390625 18.109375 -2.109375 C 14.253906 -4.222656 11.285156 -7.425781 9.203125 -11.71875 C 7.117188 -16.007812 6.078125 -21.34375 6.078125 -27.71875 C 6.078125 -34.019531 7.175781 -39.332031 9.375 -43.65625 C 11.570312 -47.976562 14.570312 -51.203125 18.375 -53.328125 C 22.1875 -55.460938 26.539062 -56.53125 31.4375 -56.53125 C 38.539062 -56.53125 44.085938 -54.523438 48.078125 -50.515625 C 52.066406 -46.515625 54.078125 -40.570312 54.109375 -32.6875 C 54.109375 -29.601562 54.046875 -27.523438 53.921875 -26.453125 Z M 46.015625 -32.6875 C 45.878906 -38.59375 44.570312 -42.882812 42.09375 -45.5625 C 39.613281 -48.25 36.0625 -49.59375 31.4375 -49.59375 C 26.570312 -49.59375 22.753906 -48.238281 19.984375 -45.53125 C 17.222656 -42.832031 15.539062 -38.550781 14.9375 -32.6875 Z M 46.015625 -32.6875 "/></g></g></g><g fill="#ffffff" fill-opacity="1"><g transform="translate(616.122835, 494.150884)"><g/></g></g><g fill="#ffffff" fill-opacity="1"><g transform="translate(641.368957, 494.150884)"><g><path d="M 40.328125 1.0625 C 33.960938 1.0625 28.296875 -0.3125 23.328125 -3.0625 C 18.367188 -5.8125 14.460938 -10.007812 11.609375 -15.65625 C 8.765625 -21.3125 7.34375 -28.347656 7.34375 -36.765625 C 7.34375 -45.179688 8.765625 -52.210938 11.609375 -57.859375 C 14.460938 -63.515625 18.367188 -67.710938 23.328125 -70.453125 C 28.296875 -73.203125 33.960938 -74.578125 40.328125 -74.578125 C 46.703125 -74.578125 52.367188 -73.203125 57.328125 -70.453125 C 62.296875 -67.710938 66.203125 -63.515625 69.046875 -57.859375 C 71.898438 -52.210938 73.328125 -45.179688 73.328125 -36.765625 C 73.328125 -28.347656 71.898438 -21.3125 69.046875 -15.65625 C 66.203125 -10.007812 62.296875 -5.8125 57.328125 -3.0625 C 52.367188 -0.3125 46.703125 1.0625 40.328125 1.0625 Z M 40.328125 -6.9375 C 47.972656 -6.9375 53.84375 -9.328125 57.9375 -14.109375 C 62.03125 -18.890625 64.078125 -26.441406 64.078125 -36.765625 C 64.078125 -47.085938 62.03125 -54.640625 57.9375 -59.421875 C 53.84375 -64.203125 47.972656 -66.59375 40.328125 -66.59375 C 24.503906 -66.59375 16.59375 -56.648438 16.59375 -36.765625 C 16.59375 -16.878906 24.503906 -6.9375 40.328125 -6.9375 Z M 40.328125 -6.9375 "/></g></g></g><g fill="#ffffff" fill-opacity="1"><g transform="translate(722.035836, 494.150884)"><g><path d="M 27.40625 1.0625 C 21.132812 1.0625 16.460938 -0.597656 13.390625 -3.921875 C 10.328125 -7.242188 8.796875 -12.109375 8.796875 -18.515625 L 8.796875 -55.46875 L 17 -55.46875 L 17 -18.703125 C 17 -10.285156 20.957031 -6.078125 28.875 -6.078125 C 33.894531 -6.078125 37.863281 -7.71875 40.78125 -11 C 43.695312 -14.289062 45.15625 -19.625 45.15625 -27 L 45.15625 -55.46875 L 53.359375 -55.46875 L 53.359375 0 L 45.609375 0 L 45.609375 -8.703125 L 44.5625 -8.953125 C 42.644531 -5.566406 40.351562 -3.050781 37.6875 -1.40625 C 35.03125 0.238281 31.601562 1.0625 27.40625 1.0625 Z M 27.40625 1.0625 "/></g></g></g><g fill="#ffffff" fill-opacity="1"><g transform="translate(785.050524, 494.150884)"><g><path d="M 37.515625 -8.796875 L 40.140625 -2.921875 C 38.828125 -1.609375 37.101562 -0.617188 34.96875 0.046875 C 32.84375 0.722656 30.539062 1.0625 28.0625 1.0625 C 17.46875 1.0625 12.171875 -4.300781 12.171875 -15.03125 L 12.171875 -48.78125 L 2.515625 -48.78125 L 2.515625 -55.53125 L 12.171875 -55.53125 L 12.171875 -67.234375 L 20.375 -68.59375 L 20.375 -55.53125 L 38.21875 -55.53125 L 38.21875 -48.78125 L 20.375 -48.78125 L 20.375 -15.84375 C 20.375 -9.46875 23.140625 -6.28125 28.671875 -6.28125 C 31.679688 -6.28125 34.28125 -7.117188 36.46875 -8.796875 Z M 37.515625 -8.796875 "/></g></g></g><g clip-path="url(#4248f34a98)"><g clip-path="url(#24684467a4)"><path fill="#e8762f" d="M 655.609375 427.386719 L 707.066406 427.386719 L 707.066406 488.292969 L 655.609375 488.292969 Z M 655.609375 427.386719 " fill-opacity="1" fill-rule="nonzero"/></g></g></svg>