<svg xmlns="http://www.w3.org/2000/svg" xmlns:xlink="http://www.w3.org/1999/xlink" width="54" zoomAndPan="magnify" viewBox="0 0 40.5 102.749997" height="137" preserveAspectRatio="xMidYMid meet" version="1.0"><defs><clipPath id="763b637de7"><path d="M 0 0.503906 L 39.878906 0.503906 L 39.878906 40.382812 L 0 40.382812 Z M 0 0.503906 " clip-rule="nonzero"/></clipPath><clipPath id="248373d62e"><path d="M 19.9375 0.503906 C 8.925781 0.503906 0 9.429688 0 20.441406 C 0 31.453125 8.925781 40.382812 19.9375 40.382812 C 30.953125 40.382812 39.878906 31.453125 39.878906 20.441406 C 39.878906 9.429688 30.953125 0.503906 19.9375 0.503906 Z M 19.9375 0.503906 " clip-rule="nonzero"/></clipPath><clipPath id="8de081a3b8"><path d="M 4.273438 4.773438 L 35.605469 4.773438 L 35.605469 36.109375 L 4.273438 36.109375 Z M 4.273438 4.773438 " clip-rule="nonzero"/></clipPath><clipPath id="4ec09844dd"><path d="M 19.9375 4.773438 C 11.285156 4.773438 4.273438 11.789062 4.273438 20.441406 C 4.273438 29.09375 11.285156 36.109375 19.9375 36.109375 C 28.59375 36.109375 35.605469 29.09375 35.605469 20.441406 C 35.605469 11.789062 28.59375 4.773438 19.9375 4.773438 Z M 19.9375 4.773438 " clip-rule="nonzero"/></clipPath></defs><g clip-path="url(#763b637de7)"><g clip-path="url(#248373d62e)"><path fill="#000000" d="M 0 0.503906 L 39.878906 0.503906 L 39.878906 40.382812 L 0 40.382812 Z M 0 0.503906 " fill-opacity="1" fill-rule="nonzero"/></g></g><path stroke-linecap="round" transform="matrix(0, 0.740854, -0.740854, 0, 22.530712, 7.523375)" fill="none" stroke-linejoin="miter" d="M 3.501114 3.500302 L 123.411355 3.500302 " stroke="#000000" stroke-width="7" stroke-opacity="1" stroke-miterlimit="4"/><g clip-path="url(#8de081a3b8)"><g clip-path="url(#4ec09844dd)"><path fill="#e67e22" d="M 4.273438 4.773438 L 35.605469 4.773438 L 35.605469 36.109375 L 4.273438 36.109375 Z M 4.273438 4.773438 " fill-opacity="1" fill-rule="nonzero"/></g></g></svg>