<svg xmlns="http://www.w3.org/2000/svg" xmlns:xlink="http://www.w3.org/1999/xlink" width="370" zoomAndPan="magnify" viewBox="0 0 277.5 145.500001" height="194" preserveAspectRatio="xMidYMid meet" version="1.0"><defs><g/><clipPath id="756600f82f"><path d="M 71.832031 39.164062 L 92.800781 39.164062 L 92.800781 60.132812 L 71.832031 60.132812 Z M 71.832031 39.164062 " clip-rule="nonzero"/></clipPath><clipPath id="f1a2e75e76"><path d="M 82.316406 39.164062 C 76.527344 39.164062 71.832031 43.859375 71.832031 49.648438 C 71.832031 55.441406 76.527344 60.132812 82.316406 60.132812 C 88.105469 60.132812 92.800781 55.441406 92.800781 49.648438 C 92.800781 43.859375 88.105469 39.164062 82.316406 39.164062 Z M 82.316406 39.164062 " clip-rule="nonzero"/></clipPath><clipPath id="33178a0c7b"><path d="M 74.078125 41.410156 L 90.554688 41.410156 L 90.554688 57.886719 L 74.078125 57.886719 Z M 74.078125 41.410156 " clip-rule="nonzero"/></clipPath><clipPath id="6d666049dd"><path d="M 82.316406 41.410156 C 77.765625 41.410156 74.078125 45.097656 74.078125 49.648438 C 74.078125 54.199219 77.765625 57.886719 82.316406 57.886719 C 86.867188 57.886719 90.554688 54.199219 90.554688 49.648438 C 90.554688 45.097656 86.867188 41.410156 82.316406 41.410156 Z M 82.316406 41.410156 " clip-rule="nonzero"/></clipPath></defs><g clip-path="url(#756600f82f)"><g clip-path="url(#f1a2e75e76)"><path fill="#000000" d="M 71.832031 39.164062 L 92.800781 39.164062 L 92.800781 60.132812 L 71.832031 60.132812 Z M 71.832031 39.164062 " fill-opacity="1" fill-rule="nonzero"/></g></g><path stroke-linecap="round" transform="matrix(0.00000000130451, 0.747431, -0.747431, 0.00000000130451, 83.81083, 42.855825)" fill="none" stroke-linejoin="miter" d="M 2.001171 1.999412 L 74.828708 1.999412 " stroke="#000000" stroke-width="4" stroke-opacity="1" stroke-miterlimit="4"/><path stroke-linecap="butt" transform="matrix(0.0157769, 0.747265, -0.747265, 0.0157769, 82.953255, 41.941794)" fill="none" stroke-linejoin="miter" d="M -0.00100218 2.498848 L 78.017873 2.499421 " stroke="#000000" stroke-width="5" stroke-opacity="1" stroke-miterlimit="4"/><g clip-path="url(#33178a0c7b)"><g clip-path="url(#6d666049dd)"><path fill="#e67e22" d="M 74.078125 41.410156 L 90.554688 41.410156 L 90.554688 57.886719 L 74.078125 57.886719 Z M 74.078125 41.410156 " fill-opacity="1" fill-rule="nonzero"/></g></g><g fill="#1abc9c" fill-opacity="1"><g transform="translate(26.902269, 99.326494)"><g><path d="M 5.828125 0 L 5.828125 -41.46875 L 12.203125 -41.46875 L 12.203125 0 Z M 9.0625 -48.375 C 7.820312 -48.375 6.753906 -48.796875 5.859375 -49.640625 C 4.972656 -50.484375 4.53125 -51.5 4.53125 -52.6875 C 4.53125 -53.875 4.972656 -54.890625 5.859375 -55.734375 C 6.753906 -56.585938 7.820312 -57.015625 9.0625 -57.015625 C 10.3125 -57.015625 11.378906 -56.585938 12.265625 -55.734375 C 13.160156 -54.890625 13.609375 -53.875 13.609375 -52.6875 C 13.609375 -51.5 13.160156 -50.484375 12.265625 -49.640625 C 11.378906 -48.796875 10.3125 -48.375 9.0625 -48.375 Z M 9.0625 -48.375 "/></g></g></g><g fill="#1abc9c" fill-opacity="1"><g transform="translate(44.934475, 99.326494)"><g><path d="M 23.859375 -41.46875 L 23.859375 -36.0625 L 15.015625 -36.0625 L 15.015625 -11.875 C 15.015625 -10.070312 15.273438 -8.722656 15.796875 -7.828125 C 16.328125 -6.941406 17.007812 -6.347656 17.84375 -6.046875 C 18.6875 -5.753906 19.578125 -5.609375 20.515625 -5.609375 C 21.210938 -5.609375 21.785156 -5.648438 22.234375 -5.734375 C 22.691406 -5.816406 23.054688 -5.882812 23.328125 -5.9375 L 24.625 -0.21875 C 24.1875 -0.0507812 23.582031 0.113281 22.8125 0.28125 C 22.039062 0.457031 21.0625 0.546875 19.875 0.546875 C 18.070312 0.546875 16.3125 0.160156 14.59375 -0.609375 C 12.875 -1.390625 11.453125 -2.570312 10.328125 -4.15625 C 9.203125 -5.738281 8.640625 -7.738281 8.640625 -10.15625 L 8.640625 -36.0625 L 2.375 -36.0625 L 2.375 -41.46875 L 8.640625 -41.46875 L 8.640625 -51.390625 L 15.015625 -51.390625 L 15.015625 -41.46875 Z M 23.859375 -41.46875 "/></g></g></g><g fill="#1abc9c" fill-opacity="1"><g transform="translate(88.681038, 99.796346)"><g><path d="M 12.203125 -24.9375 L 12.203125 0 L 5.828125 0 L 5.828125 -41.46875 L 11.984375 -41.46875 L 11.984375 -34.984375 L 12.53125 -34.984375 C 13.5 -37.085938 14.972656 -38.78125 16.953125 -40.0625 C 18.929688 -41.351562 21.488281 -42 24.625 -42 C 28.8125 -42 32.195312 -40.710938 34.78125 -38.140625 C 37.363281 -35.566406 38.65625 -31.632812 38.65625 -26.34375 L 38.65625 0 L 32.28125 0 L 32.28125 -25.921875 C 32.28125 -29.171875 31.429688 -31.707031 29.734375 -33.53125 C 28.046875 -35.363281 25.726562 -36.28125 22.78125 -36.28125 C 19.738281 -36.28125 17.210938 -35.296875 15.203125 -33.328125 C 13.203125 -31.359375 12.203125 -28.5625 12.203125 -24.9375 Z M 12.203125 -24.9375 "/></g></g></g><g fill="#1abc9c" fill-opacity="1"><g transform="translate(133.167695, 99.796346)"><g><path d="M 23.21875 0.859375 C 19.21875 0.859375 15.773438 -0.0234375 12.890625 -1.796875 C 10.003906 -3.566406 7.78125 -6.046875 6.21875 -9.234375 C 4.664062 -12.429688 3.890625 -16.15625 3.890625 -20.40625 C 3.890625 -24.65625 4.664062 -28.398438 6.21875 -31.640625 C 7.78125 -34.890625 9.957031 -37.425781 12.75 -39.25 C 15.550781 -41.082031 18.820312 -42 22.5625 -42 C 24.726562 -42 26.863281 -41.640625 28.96875 -40.921875 C 31.070312 -40.203125 32.988281 -39.035156 34.71875 -37.421875 C 36.445312 -35.816406 37.820312 -33.691406 38.84375 -31.046875 C 39.875 -28.398438 40.390625 -25.140625 40.390625 -21.265625 L 40.390625 -18.578125 L 10.28125 -18.578125 C 10.425781 -14.148438 11.679688 -10.753906 14.046875 -8.390625 C 16.410156 -6.035156 19.46875 -4.859375 23.21875 -4.859375 C 25.71875 -4.859375 27.863281 -5.394531 29.65625 -6.46875 C 31.457031 -7.550781 32.765625 -9.175781 33.578125 -11.34375 L 39.734375 -9.609375 C 38.765625 -6.472656 36.820312 -3.941406 33.90625 -2.015625 C 30.988281 -0.0976562 27.425781 0.859375 23.21875 0.859375 Z M 10.28125 -24.078125 L 33.90625 -24.078125 C 33.90625 -27.585938 32.878906 -30.5 30.828125 -32.8125 C 28.773438 -35.125 26.019531 -36.28125 22.5625 -36.28125 C 20.132812 -36.28125 18.03125 -35.710938 16.25 -34.578125 C 14.46875 -33.441406 13.0625 -31.941406 12.03125 -30.078125 C 11.007812 -28.222656 10.425781 -26.222656 10.28125 -24.078125 Z M 10.28125 -24.078125 "/></g></g></g><g fill="#1abc9c" fill-opacity="1"><g transform="translate(177.438389, 99.796346)"><g><path d="M 5.828125 0 L 5.828125 -41.46875 L 11.984375 -41.46875 L 11.984375 -35.203125 L 12.421875 -35.203125 C 13.160156 -37.253906 14.519531 -38.914062 16.5 -40.1875 C 18.476562 -41.46875 20.71875 -42.109375 23.21875 -42.109375 C 24.363281 -42.109375 25.367188 -41.972656 26.234375 -41.703125 C 27.097656 -41.429688 27.851562 -41.0625 28.5 -40.59375 L 26.34375 -35.203125 C 25.894531 -35.429688 25.367188 -35.613281 24.765625 -35.75 C 24.160156 -35.882812 23.460938 -35.953125 22.671875 -35.953125 C 19.648438 -35.953125 17.148438 -35.03125 15.171875 -33.1875 C 13.191406 -31.34375 12.203125 -29.023438 12.203125 -26.234375 L 12.203125 0 Z M 5.828125 0 "/></g></g></g><g fill="#1abc9c" fill-opacity="1"><g transform="translate(206.592266, 99.796346)"><g><path d="M 18.03125 0.96875 C 15.40625 0.96875 13.019531 0.46875 10.875 -0.53125 C 8.738281 -1.53125 7.039062 -2.976562 5.78125 -4.875 C 4.519531 -6.769531 3.890625 -9.066406 3.890625 -11.765625 C 3.890625 -14.140625 4.351562 -16.066406 5.28125 -17.546875 C 6.21875 -19.035156 7.46875 -20.203125 9.03125 -21.046875 C 10.601562 -21.898438 12.335938 -22.535156 14.234375 -22.953125 C 16.140625 -23.378906 18.050781 -23.71875 19.96875 -23.96875 C 22.488281 -24.289062 24.535156 -24.535156 26.109375 -24.703125 C 27.691406 -24.878906 28.847656 -25.175781 29.578125 -25.59375 C 30.304688 -26.007812 30.671875 -26.726562 30.671875 -27.75 L 30.671875 -27.96875 C 30.671875 -30.632812 29.941406 -32.703125 28.484375 -34.171875 C 27.035156 -35.648438 24.847656 -36.390625 21.921875 -36.390625 C 18.878906 -36.390625 16.492188 -35.722656 14.765625 -34.390625 C 13.035156 -33.054688 11.820312 -31.632812 11.125 -30.125 L 5.078125 -32.28125 C 6.148438 -34.800781 7.59375 -36.765625 9.40625 -38.171875 C 11.21875 -39.585938 13.195312 -40.578125 15.34375 -41.140625 C 17.5 -41.710938 19.617188 -42 21.703125 -42 C 23.035156 -42 24.566406 -41.84375 26.296875 -41.53125 C 28.035156 -41.21875 29.71875 -40.570312 31.34375 -39.59375 C 32.976562 -38.625 34.332031 -37.160156 35.40625 -35.203125 C 36.488281 -33.242188 37.03125 -30.613281 37.03125 -27.3125 L 37.03125 0 L 30.671875 0 L 30.671875 -5.609375 L 30.34375 -5.609375 C 29.90625 -4.710938 29.179688 -3.75 28.171875 -2.71875 C 27.171875 -1.695312 25.832031 -0.828125 24.15625 -0.109375 C 22.488281 0.609375 20.445312 0.96875 18.03125 0.96875 Z M 19 -4.75 C 21.519531 -4.75 23.648438 -5.242188 25.390625 -6.234375 C 27.128906 -7.222656 28.441406 -8.5 29.328125 -10.0625 C 30.222656 -11.632812 30.671875 -13.285156 30.671875 -15.015625 L 30.671875 -20.84375 C 30.398438 -20.519531 29.804688 -20.226562 28.890625 -19.96875 C 27.984375 -19.707031 26.941406 -19.476562 25.765625 -19.28125 C 24.585938 -19.09375 23.441406 -18.929688 22.328125 -18.796875 C 21.222656 -18.660156 20.332031 -18.550781 19.65625 -18.46875 C 18 -18.25 16.453125 -17.898438 15.015625 -17.421875 C 13.585938 -16.941406 12.4375 -16.226562 11.5625 -15.28125 C 10.6875 -14.34375 10.25 -13.066406 10.25 -11.453125 C 10.25 -9.234375 11.070312 -7.5625 12.71875 -6.4375 C 14.375 -5.3125 16.46875 -4.75 19 -4.75 Z M 19 -4.75 "/></g></g></g></svg>