<svg xmlns="http://www.w3.org/2000/svg" xmlns:xlink="http://www.w3.org/1999/xlink" width="459" zoomAndPan="magnify" viewBox="0 0 344.25 143.999998" height="192" preserveAspectRatio="xMidYMid meet" version="1.0"><defs><g/><clipPath id="106b6748f1"><path d="M 247.136719 3.511719 L 287.417969 3.511719 L 287.417969 43.796875 L 247.136719 43.796875 Z M 247.136719 3.511719 " clip-rule="nonzero"/></clipPath><clipPath id="7a6cca2c17"><path d="M 267.277344 3.511719 C 256.152344 3.511719 247.136719 12.53125 247.136719 23.65625 C 247.136719 34.777344 256.152344 43.796875 267.277344 43.796875 C 278.402344 43.796875 287.417969 34.777344 287.417969 23.65625 C 287.417969 12.53125 278.402344 3.511719 267.277344 3.511719 Z M 267.277344 3.511719 " clip-rule="nonzero"/></clipPath><clipPath id="7be255c0bb"><path d="M 251.449219 7.828125 L 283.101562 7.828125 L 283.101562 39.480469 L 251.449219 39.480469 Z M 251.449219 7.828125 " clip-rule="nonzero"/></clipPath><clipPath id="19018df2a0"><path d="M 267.277344 7.828125 C 258.535156 7.828125 251.449219 14.914062 251.449219 23.65625 C 251.449219 32.394531 258.535156 39.480469 267.277344 39.480469 C 276.015625 39.480469 283.101562 32.394531 283.101562 23.65625 C 283.101562 14.914062 276.015625 7.828125 267.277344 7.828125 Z M 267.277344 7.828125 " clip-rule="nonzero"/></clipPath></defs><g fill="#1abc9c" fill-opacity="1"><g transform="translate(25.948526, 98.935233)"><g><path d="M 5.84375 0 L 5.84375 -41.515625 L 12.21875 -41.515625 L 12.21875 0 Z M 9.078125 -48.4375 C 7.835938 -48.4375 6.769531 -48.859375 5.875 -49.703125 C 4.988281 -50.546875 4.546875 -51.5625 4.546875 -52.75 C 4.546875 -53.945312 4.988281 -54.96875 5.875 -55.8125 C 6.769531 -56.65625 7.835938 -57.078125 9.078125 -57.078125 C 10.328125 -57.078125 11.394531 -56.65625 12.28125 -55.8125 C 13.175781 -54.96875 13.625 -53.945312 13.625 -52.75 C 13.625 -51.5625 13.175781 -50.546875 12.28125 -49.703125 C 11.394531 -48.859375 10.328125 -48.4375 9.078125 -48.4375 Z M 9.078125 -48.4375 "/></g></g></g><g fill="#1abc9c" fill-opacity="1"><g transform="translate(42.479888, 98.935233)"><g><path d="M 23.890625 -41.515625 L 23.890625 -36.109375 L 15.03125 -36.109375 L 15.03125 -11.890625 C 15.03125 -10.085938 15.296875 -8.738281 15.828125 -7.84375 C 16.359375 -6.957031 17.039062 -6.363281 17.875 -6.0625 C 18.71875 -5.769531 19.609375 -5.625 20.546875 -5.625 C 21.242188 -5.625 21.816406 -5.660156 22.265625 -5.734375 C 22.722656 -5.816406 23.085938 -5.890625 23.359375 -5.953125 L 24.65625 -0.21875 C 24.21875 -0.0507812 23.609375 0.113281 22.828125 0.28125 C 22.054688 0.457031 21.078125 0.546875 19.890625 0.546875 C 18.085938 0.546875 16.328125 0.160156 14.609375 -0.609375 C 12.890625 -1.390625 11.46875 -2.570312 10.34375 -4.15625 C 9.21875 -5.75 8.65625 -7.75 8.65625 -10.15625 L 8.65625 -36.109375 L 2.375 -36.109375 L 2.375 -41.515625 L 8.65625 -41.515625 L 8.65625 -51.453125 L 15.03125 -51.453125 L 15.03125 -41.515625 Z M 23.890625 -41.515625 "/></g></g></g><g fill="#1abc9c" fill-opacity="1"><g transform="translate(68.63273, 98.935233)"><g><path d="M 5.84375 0 L 5.84375 -41.515625 L 12.21875 -41.515625 L 12.21875 0 Z M 9.078125 -48.4375 C 7.835938 -48.4375 6.769531 -48.859375 5.875 -49.703125 C 4.988281 -50.546875 4.546875 -51.5625 4.546875 -52.75 C 4.546875 -53.945312 4.988281 -54.96875 5.875 -55.8125 C 6.769531 -56.65625 7.835938 -57.078125 9.078125 -57.078125 C 10.328125 -57.078125 11.394531 -56.65625 12.28125 -55.8125 C 13.175781 -54.96875 13.625 -53.945312 13.625 -52.75 C 13.625 -51.5625 13.175781 -50.546875 12.28125 -49.703125 C 11.394531 -48.859375 10.328125 -48.4375 9.078125 -48.4375 Z M 9.078125 -48.4375 "/></g></g></g><g fill="#1abc9c" fill-opacity="1"><g transform="translate(85.164094, 98.935233)"><g><path d="M 12.21875 -24.96875 L 12.21875 0 L 5.84375 0 L 5.84375 -41.515625 L 12 -41.515625 L 12 -35.03125 L 12.546875 -35.03125 C 13.515625 -37.132812 14.988281 -38.828125 16.96875 -40.109375 C 18.957031 -41.398438 21.519531 -42.046875 24.65625 -42.046875 C 28.851562 -42.046875 32.242188 -40.757812 34.828125 -38.1875 C 37.410156 -35.613281 38.703125 -31.675781 38.703125 -26.375 L 38.703125 0 L 32.328125 0 L 32.328125 -25.953125 C 32.328125 -29.210938 31.476562 -31.753906 29.78125 -33.578125 C 28.09375 -35.410156 25.769531 -36.328125 22.8125 -36.328125 C 19.769531 -36.328125 17.242188 -35.335938 15.234375 -33.359375 C 13.222656 -31.390625 12.21875 -28.59375 12.21875 -24.96875 Z M 12.21875 -24.96875 "/></g></g></g><g fill="#1abc9c" fill-opacity="1"><g transform="translate(128.181542, 98.935233)"><g><path d="M 23.25 0.859375 C 19.25 0.859375 15.800781 -0.0234375 12.90625 -1.796875 C 10.007812 -3.566406 7.78125 -6.050781 6.21875 -9.25 C 4.664062 -12.445312 3.890625 -16.175781 3.890625 -20.4375 C 3.890625 -24.6875 4.664062 -28.4375 6.21875 -31.6875 C 7.78125 -34.9375 9.960938 -37.472656 12.765625 -39.296875 C 15.566406 -41.128906 18.84375 -42.046875 22.59375 -42.046875 C 24.757812 -42.046875 26.894531 -41.6875 29 -40.96875 C 31.101562 -40.25 33.019531 -39.082031 34.75 -37.46875 C 36.488281 -35.851562 37.867188 -33.722656 38.890625 -31.078125 C 39.921875 -28.429688 40.4375 -25.171875 40.4375 -21.296875 L 40.4375 -18.59375 L 10.296875 -18.59375 C 10.441406 -14.164062 11.695312 -10.769531 14.0625 -8.40625 C 16.4375 -6.039062 19.5 -4.859375 23.25 -4.859375 C 25.75 -4.859375 27.898438 -5.398438 29.703125 -6.484375 C 31.503906 -7.566406 32.8125 -9.1875 33.625 -11.34375 L 39.78125 -9.625 C 38.8125 -6.488281 36.863281 -3.957031 33.9375 -2.03125 C 31.019531 -0.101562 27.457031 0.859375 23.25 0.859375 Z M 10.296875 -24.109375 L 33.953125 -24.109375 C 33.953125 -27.617188 32.921875 -30.53125 30.859375 -32.84375 C 28.804688 -35.164062 26.050781 -36.328125 22.59375 -36.328125 C 20.164062 -36.328125 18.054688 -35.757812 16.265625 -34.625 C 14.484375 -33.488281 13.078125 -31.988281 12.046875 -30.125 C 11.023438 -28.257812 10.441406 -26.253906 10.296875 -24.109375 Z M 10.296875 -24.109375 "/></g></g></g><g fill="#1abc9c" fill-opacity="1"><g transform="translate(170.982792, 98.935233)"><g><path d="M 5.84375 0 L 5.84375 -41.515625 L 12 -41.515625 L 12 -35.25 L 12.4375 -35.25 C 13.175781 -37.300781 14.535156 -38.960938 16.515625 -40.234375 C 18.492188 -41.515625 20.738281 -42.15625 23.25 -42.15625 C 24.394531 -42.15625 25.398438 -42.019531 26.265625 -41.75 C 27.128906 -41.488281 27.890625 -41.125 28.546875 -40.65625 L 26.375 -35.25 C 25.925781 -35.476562 25.398438 -35.660156 24.796875 -35.796875 C 24.191406 -35.929688 23.492188 -36 22.703125 -36 C 19.671875 -36 17.164062 -35.070312 15.1875 -33.21875 C 13.207031 -31.375 12.21875 -29.054688 12.21875 -26.265625 L 12.21875 0 Z M 5.84375 0 "/></g></g></g><g fill="#1abc9c" fill-opacity="1"><g transform="translate(198.649139, 98.935233)"><g><path d="M 18.046875 0.96875 C 15.421875 0.96875 13.035156 0.46875 10.890625 -0.53125 C 8.742188 -1.53125 7.039062 -2.976562 5.78125 -4.875 C 4.519531 -6.78125 3.890625 -9.082031 3.890625 -11.78125 C 3.890625 -14.15625 4.359375 -16.085938 5.296875 -17.578125 C 6.234375 -19.066406 7.484375 -20.234375 9.046875 -21.078125 C 10.617188 -21.929688 12.351562 -22.566406 14.25 -22.984375 C 16.15625 -23.410156 18.070312 -23.75 20 -24 C 22.519531 -24.320312 24.566406 -24.566406 26.140625 -24.734375 C 27.722656 -24.910156 28.878906 -25.207031 29.609375 -25.625 C 30.335938 -26.039062 30.703125 -26.757812 30.703125 -27.78125 L 30.703125 -28 C 30.703125 -30.664062 29.976562 -32.738281 28.53125 -34.21875 C 27.082031 -35.695312 24.890625 -36.4375 21.953125 -36.4375 C 18.898438 -36.4375 16.507812 -35.769531 14.78125 -34.4375 C 13.050781 -33.101562 11.835938 -31.675781 11.140625 -30.15625 L 5.078125 -32.328125 C 6.160156 -34.847656 7.609375 -36.816406 9.421875 -38.234375 C 11.234375 -39.648438 13.210938 -40.640625 15.359375 -41.203125 C 17.515625 -41.765625 19.640625 -42.046875 21.734375 -42.046875 C 23.066406 -42.046875 24.601562 -41.890625 26.34375 -41.578125 C 28.082031 -41.265625 29.765625 -40.617188 31.390625 -39.640625 C 33.023438 -38.671875 34.378906 -37.203125 35.453125 -35.234375 C 36.535156 -33.273438 37.078125 -30.648438 37.078125 -27.359375 L 37.078125 0 L 30.703125 0 L 30.703125 -5.625 L 30.375 -5.625 C 29.945312 -4.71875 29.226562 -3.75 28.21875 -2.71875 C 27.207031 -1.695312 25.863281 -0.828125 24.1875 -0.109375 C 22.507812 0.609375 20.460938 0.96875 18.046875 0.96875 Z M 19.03125 -4.75 C 21.550781 -4.75 23.679688 -5.242188 25.421875 -6.234375 C 27.160156 -7.234375 28.472656 -8.515625 29.359375 -10.078125 C 30.253906 -11.648438 30.703125 -13.300781 30.703125 -15.03125 L 30.703125 -20.859375 C 30.429688 -20.535156 29.835938 -20.242188 28.921875 -19.984375 C 28.015625 -19.722656 26.972656 -19.5 25.796875 -19.3125 C 24.617188 -19.125 23.472656 -18.960938 22.359375 -18.828125 C 21.253906 -18.691406 20.359375 -18.578125 19.671875 -18.484375 C 18.015625 -18.265625 16.46875 -17.914062 15.03125 -17.4375 C 13.601562 -16.96875 12.453125 -16.257812 11.578125 -15.3125 C 10.703125 -14.363281 10.265625 -13.078125 10.265625 -11.453125 C 10.265625 -9.242188 11.085938 -7.570312 12.734375 -6.4375 C 14.390625 -5.3125 16.488281 -4.75 19.03125 -4.75 Z M 19.03125 -4.75 "/></g></g></g><g fill="#1abc9c" fill-opacity="1"><g transform="translate(240.044999, 98.935233)"><g><path d="M 10.484375 0.4375 C 9.148438 0.4375 8.003906 -0.0390625 7.046875 -1 C 6.097656 -1.957031 5.625 -3.101562 5.625 -4.4375 C 5.625 -5.769531 6.097656 -6.910156 7.046875 -7.859375 C 8.003906 -8.816406 9.148438 -9.296875 10.484375 -9.296875 C 11.816406 -9.296875 12.957031 -8.816406 13.90625 -7.859375 C 14.863281 -6.910156 15.34375 -5.769531 15.34375 -4.4375 C 15.34375 -3.101562 14.863281 -1.957031 13.90625 -1 C 12.957031 -0.0390625 11.816406 0.4375 10.484375 0.4375 Z M 10.484375 0.4375 "/></g></g></g><g fill="#1abc9c" fill-opacity="1"><g transform="translate(259.509522, 98.935233)"><g/></g></g><g clip-path="url(#106b6748f1)"><g clip-path="url(#7a6cca2c17)"><path fill="#000000" d="M 247.136719 3.511719 L 287.417969 3.511719 L 287.417969 43.796875 L 247.136719 43.796875 Z M 247.136719 3.511719 " fill-opacity="1" fill-rule="nonzero"/></g></g><g fill="#1abc9c" fill-opacity="1"><g transform="translate(271.18468, 98.939667)"><g><path d="M 22.6875 0.859375 C 18.945312 0.859375 15.664062 -0.03125 12.84375 -1.8125 C 10.019531 -3.59375 7.820312 -6.082031 6.25 -9.28125 C 4.675781 -12.488281 3.890625 -16.238281 3.890625 -20.53125 C 3.890625 -24.851562 4.675781 -28.625 6.25 -31.84375 C 7.820312 -35.070312 10.019531 -37.578125 12.84375 -39.359375 C 15.664062 -41.140625 18.945312 -42.03125 22.6875 -42.03125 C 26.4375 -42.03125 29.71875 -41.140625 32.53125 -39.359375 C 35.351562 -37.578125 37.550781 -35.070312 39.125 -31.84375 C 40.695312 -28.625 41.484375 -24.851562 41.484375 -20.53125 C 41.484375 -16.238281 40.695312 -12.488281 39.125 -9.28125 C 37.550781 -6.082031 35.351562 -3.59375 32.53125 -1.8125 C 29.71875 -0.03125 26.4375 0.859375 22.6875 0.859375 Z M 22.6875 -4.859375 C 25.53125 -4.859375 27.867188 -5.585938 29.703125 -7.046875 C 31.546875 -8.503906 32.90625 -10.421875 33.78125 -12.796875 C 34.664062 -15.179688 35.109375 -17.757812 35.109375 -20.53125 C 35.109375 -23.300781 34.664062 -25.882812 33.78125 -28.28125 C 32.90625 -30.675781 31.546875 -32.609375 29.703125 -34.078125 C 27.867188 -35.554688 25.53125 -36.296875 22.6875 -36.296875 C 19.84375 -36.296875 17.5 -35.554688 15.65625 -34.078125 C 13.820312 -32.609375 12.460938 -30.675781 11.578125 -28.28125 C 10.703125 -25.882812 10.265625 -23.300781 10.265625 -20.53125 C 10.265625 -17.757812 10.703125 -15.179688 11.578125 -12.796875 C 12.460938 -10.421875 13.820312 -8.503906 15.65625 -7.046875 C 17.5 -5.585938 19.84375 -4.859375 22.6875 -4.859375 Z M 22.6875 -4.859375 "/></g></g></g><path stroke-linecap="round" transform="matrix(0, 0.74837, -0.74837, 0, 269.894707, 10.604382)" fill="none" stroke-linejoin="miter" d="M 3.498638 3.497421 L 123.410362 3.497421 " stroke="#000000" stroke-width="7" stroke-opacity="1" stroke-miterlimit="4"/><g clip-path="url(#7be255c0bb)"><g clip-path="url(#19018df2a0)"><path fill="#e67e22" d="M 251.449219 7.828125 L 283.101562 7.828125 L 283.101562 39.480469 L 251.449219 39.480469 Z M 251.449219 7.828125 " fill-opacity="1" fill-rule="nonzero"/></g></g></svg>