<svg width="50" height="50" viewBox="0 0 50 50" fill="none" xmlns="http://www.w3.org/2000/svg">
<g clip-path="url(#clip0_3871_1185)">
<path d="M18.75 26.5625C23.0647 26.5625 26.5625 23.0647 26.5625 18.75C26.5625 14.4353 23.0647 10.9375 18.75 10.9375C14.4353 10.9375 10.9375 14.4353 10.9375 18.75C10.9375 23.0647 14.4353 26.5625 18.75 26.5625Z" stroke="white" stroke-width="3" stroke-miterlimit="10" stroke-linecap="round" stroke-linejoin="round"/>
<path d="M35.3908 23.4375C35.5707 22.639 35.7011 21.8302 35.7815 21.0156V20.7031C35.8596 20.1563 35.8596 19.6094 35.8596 19.0625C35.9013 14.476 34.1246 10.0597 30.9181 6.77998C27.7116 3.50029 23.3365 1.62429 18.7502 1.5625C16.4726 1.58293 14.2213 2.05179 12.1248 2.94232C10.0284 3.83285 8.12792 5.1276 6.5319 6.75265C4.93587 8.37769 3.67557 10.3012 2.82295 12.4133C1.97034 14.5255 1.54211 16.7849 1.56272 19.0625C1.56272 19.6094 1.56272 20.2344 1.64085 20.7813V21.0156C3.0471 34.7656 18.7502 45.3125 18.7502 45.3125C20.7325 43.9118 22.6123 42.3714 24.3752 40.7031" stroke="white" stroke-width="3" stroke-miterlimit="10" stroke-linecap="round" stroke-linejoin="round"/>
<path d="M35.9375 48.4375C42.8411 48.4375 48.4375 42.8411 48.4375 35.9375C48.4375 29.0339 42.8411 23.4375 35.9375 23.4375C29.0339 23.4375 23.4375 29.0339 23.4375 35.9375C23.4375 42.8411 29.0339 48.4375 35.9375 48.4375Z" stroke="white" stroke-width="3" stroke-miterlimit="10" stroke-linecap="round" stroke-linejoin="round"/>
<path d="M35.9375 29.6875V42.1875M29.6875 35.9375H42.1875" stroke="white" stroke-width="3" stroke-miterlimit="10" stroke-linecap="round" stroke-linejoin="round"/>
</g>
<defs>
<clipPath id="clip0_3871_1185">
<rect width="50" height="50" fill="white"/>
</clipPath>
</defs>
</svg>
