<svg width="61" height="61" viewBox="0 0 61 61" fill="none" xmlns="http://www.w3.org/2000/svg">
<circle cx="30.5" cy="30.5" r="30.5" fill="#F8F9FA"/>
<path d="M46.8985 26.9687C48.1492 31.0026 47.9646 35.345 46.3762 39.2582C44.7878 43.1714 41.8935 46.4139 38.1851 48.4348C34.4768 50.4557 30.1831 51.1303 26.0337 50.344C21.8842 49.5577 18.135 47.359 15.4231 44.1215C12.7112 40.884 11.2038 36.8074 11.1571 32.5844C11.1105 28.3614 12.5274 24.2525 15.1671 20.9559C17.8068 17.6592 21.5065 15.3782 25.6375 14.5004C29.7686 13.6226 34.0761 14.2022 37.8282 16.1406M36.3517 15.4375C32.2735 17.4062 29.3907 17.6172 29.3907 20.1484C29.3907 22.6797 33.047 21.2031 33.047 23.8047C33.047 26.4062 30.2345 28.2344 28.1954 26.8984C26.1563 25.5625 23.3438 24.7891 20.8829 28.1641C18.422 31.5391 20.0392 35.4766 21.797 35.4062C23.5548 35.3359 25.172 33.7187 25.9454 35.8281C26.7189 37.9375 26.8595 37.9375 27.6329 38.3594C28.4063 38.7812 28.4767 39.6953 28.1954 40.8906C27.9142 42.0859 29.461 45.7422 30.6563 45.7422C31.8517 45.7422 32.9767 45.25 33.1173 43.2812C33.2579 41.3125 34.7345 41.2422 35.4376 40.6797C36.1407 40.1172 34.9454 38.0781 36.211 36.7422C37.4767 35.4062 40.2189 32.9453 37.9689 32.3125C35.7189 31.6797 35.8595 31.2578 35.5079 30.2734C35.1564 29.2891 34.2423 28.3047 36.1407 28.2344C37.1097 28.2376 38.0695 28.0464 38.9632 27.672C39.857 27.2976 40.6665 26.7476 41.3438 26.0547L41.836 25.5625" stroke="#2C3E50" stroke-width="2" stroke-miterlimit="10" stroke-linecap="round" stroke-linejoin="round"/>
<path d="M44.8594 8.40625C42.9946 8.40625 41.2061 9.14704 39.8875 10.4657C38.5689 11.7843 37.8281 13.5727 37.8281 15.4375C37.8281 21.7656 44.8594 29.5 44.8594 29.5C44.8594 29.5 51.8906 21.7656 51.8906 15.4375C51.8906 14.5141 51.7088 13.5998 51.3554 12.7468C51.0021 11.8937 50.4841 11.1186 49.8312 10.4657C49.1783 9.81274 48.4032 9.29483 47.5501 8.94147C46.697 8.58812 45.7827 8.40625 44.8594 8.40625Z" stroke="#2C3E50" stroke-width="2" stroke-miterlimit="10" stroke-linecap="round" stroke-linejoin="round"/>
<path d="M44.8594 16.8438C45.636 16.8438 46.2656 16.2142 46.2656 15.4375C46.2656 14.6608 45.636 14.0312 44.8594 14.0312C44.0827 14.0312 43.4531 14.6608 43.4531 15.4375C43.4531 16.2142 44.0827 16.8438 44.8594 16.8438Z" stroke="#2C3E50" stroke-width="2" stroke-miterlimit="10" stroke-linecap="round" stroke-linejoin="round"/>
<circle cx="45" cy="15" r="4" fill="#E67E22"/>
</svg>
