<svg width="51" height="55" viewBox="0 0 51 55" fill="none" xmlns="http://www.w3.org/2000/svg">
<path d="M26.3428 52.7434L36.7467 37.9893H46.6867C47.5654 37.9893 48.4082 37.6083 49.0295 36.9302C49.6509 36.252 50 35.3322 50 34.3731C50 33.414 49.6509 32.4942 49.0295 31.8161C48.4082 31.1379 47.5654 30.7569 46.6867 30.7569H36.7467L26.3428 16.0028C26.3428 16.0028 25.6138 14.8457 24.8186 14.8457H22.0354C21.8629 14.8341 21.6908 14.8753 21.5386 14.9648C21.3864 15.0542 21.2601 15.1883 21.174 15.3519C21.0414 15.7136 21.3728 16.7261 21.5053 17.0877L25.6138 30.7569H18.192L14.5473 25.4773C14.4453 25.3132 14.3065 25.1805 14.144 25.0919C13.9816 25.0032 13.801 24.9616 13.6196 24.971H11.5653C11.3002 24.971 10.7038 25.0433 11.0352 25.9835C11.3665 26.9238 14.216 34.3731 14.216 34.3731C14.216 34.3731 11.3665 41.7502 11.0352 42.7627C10.7038 43.7752 11.3002 43.7752 11.5653 43.7752H13.6196C13.801 43.7846 13.9816 43.743 14.144 43.6544C14.3065 43.5657 14.4453 43.433 14.5473 43.269L18.192 37.9893H25.6138L21.5053 51.6585C21.3728 52.0202 21.0414 53.0327 21.174 53.3943C21.2536 53.5641 21.3786 53.7034 21.5325 53.7939C21.6863 53.8843 21.8618 53.9215 22.0354 53.9006H24.8186C25.6138 53.9006 26.3428 52.7434 26.3428 52.7434Z" stroke="white" stroke-width="2" stroke-linecap="round" stroke-linejoin="round"/>
</svg>
