<svg width="50" height="50" viewBox="0 0 50 50" fill="none" xmlns="http://www.w3.org/2000/svg">
<path d="M33.6719 13.2812L41.4062 21.0156M33.5938 21.0938L41.3281 13.3594M26.0938 19.2969C27.5346 17.9479 29.4325 17.1943 31.4063 17.1875M23.2031 27.5C23.4444 26.7682 23.576 26.0047 23.5938 25.2344V25C23.5762 23.8419 23.8164 22.6945 24.2969 21.6406M16.5625 32.8125C18.57 32.6014 20.4178 31.6215 21.7187 30.0781M7.65625 32.8125H13.5937M1.5625 32.8125H4.6875" stroke="white" stroke-width="3" stroke-miterlimit="10" stroke-linecap="round" stroke-linejoin="round"/>
<path d="M48.4375 7.8125V46.875L31.25 42.1875L18.75 46.875L1.5625 42.1875V3.125L18.75 7.8125L31.25 3.125L48.4375 7.8125Z" stroke="white" stroke-width="3" stroke-miterlimit="10" stroke-linecap="round" stroke-linejoin="round"/>
</svg>
