<svg width="38" height="39" viewBox="0 0 38 39" fill="none" xmlns="http://www.w3.org/2000/svg">
<g clip-path="url(#clip0_4616_242)">
<path d="M32.0029 17.0027C33.059 20.4091 32.9031 24.076 31.5618 27.3805C30.2205 30.6849 27.7764 33.423 24.6449 35.1296C21.5134 36.8361 17.8876 37.4058 14.3837 36.7418C10.8797 36.0779 7.71371 34.2212 5.42363 31.4873C3.13355 28.7534 1.86067 25.3109 1.82126 21.7448C1.78184 18.1787 2.97834 14.709 5.20744 11.9252C7.43653 9.14132 10.5607 7.21513 14.0492 6.47388C17.5376 5.73263 21.1751 6.22204 24.3435 7.85895M23.0966 7.2652C19.6529 8.9277 17.2185 9.10583 17.2185 11.2433C17.2185 13.3808 20.306 12.134 20.306 14.3308C20.306 16.5277 17.931 18.0714 16.2091 16.9433C14.4873 15.8152 12.1123 15.1621 10.0341 18.0121C7.95602 20.8621 9.32165 24.1871 10.806 24.1277C12.2904 24.0683 13.656 22.7027 14.3091 24.484C14.9623 26.2652 15.081 26.2652 15.7341 26.6214C16.3873 26.9777 16.4466 27.7496 16.2091 28.759C15.9716 29.7683 17.2779 32.8558 18.2873 32.8558C19.2966 32.8558 20.2466 32.4402 20.3654 30.7777C20.4841 29.1152 21.731 29.0558 22.3248 28.5808C22.9185 28.1058 21.9091 26.3839 22.9779 25.2558C24.0466 24.1277 26.3623 22.0496 24.4623 21.5152C22.5623 20.9808 22.681 20.6246 22.3841 19.7933C22.0873 18.9621 21.3154 18.1308 22.9185 18.0715C23.7368 18.0742 24.5473 17.9127 25.302 17.5965C26.0567 17.2804 26.7403 16.816 27.3123 16.2308L27.7279 15.8152" stroke="#2C3E50" stroke-width="2" stroke-miterlimit="10" stroke-linecap="round" stroke-linejoin="round"/>
<path d="M30.2812 1.32764C28.7065 1.32764 27.1963 1.95319 26.0828 3.06669C24.9693 4.18019 24.3438 5.69041 24.3438 7.26514C24.3437 12.6089 30.2812 19.1401 30.2812 19.1401C30.2812 19.1401 36.2188 12.6089 36.2188 7.26514C36.2188 6.48541 36.0652 5.71332 35.7668 4.99295C35.4684 4.27258 35.031 3.61804 34.4797 3.06669C33.9283 2.51534 33.2738 2.07799 32.5534 1.7796C31.8331 1.48121 31.061 1.32764 30.2812 1.32764Z" stroke="#2C3E50" stroke-width="2" stroke-miterlimit="10" stroke-linecap="round" stroke-linejoin="round"/>
<path d="M30.2812 8.45264C30.9371 8.45264 31.4688 7.92097 31.4688 7.26514C31.4688 6.6093 30.9371 6.07764 30.2812 6.07764C29.6254 6.07764 29.0938 6.6093 29.0938 7.26514C29.0938 7.92097 29.6254 8.45264 30.2812 8.45264Z" stroke="#2C3E50" stroke-width="2" stroke-miterlimit="10" stroke-linecap="round" stroke-linejoin="round"/>
<circle cx="30.4002" cy="6.8956" r="3.37778" fill="#E67E22"/>
</g>
<defs>
<clipPath id="clip0_4616_242">
<rect width="38" height="38" fill="white" transform="translate(0 0.140137)"/>
</clipPath>
</defs>
</svg>
