<svg width="60" height="60" viewBox="0 0 60 60" fill="none" xmlns="http://www.w3.org/2000/svg">
<g clip-path="url(#clip0_3871_1850)">
<path d="M40.2188 40.5938C41.6992 42.4733 43.296 44.2581 45 45.9376C45 45.9376 58.125 33.3751 58.125 21.5626C58.1314 19.0296 57.4047 16.5489 56.0327 14.4198C54.6606 12.2907 52.7018 10.604 50.3925 9.56334C48.0832 8.52268 45.5221 8.17245 43.0182 8.55491C40.5143 8.93738 38.1746 10.0362 36.2813 11.7188M23.625 11.7188C21.7291 10.0659 19.3981 8.99254 16.9095 8.62657C14.421 8.2606 11.8797 8.61741 9.58817 9.65453C7.29663 10.6917 5.35136 12.3654 3.98392 14.4765C2.61647 16.5877 1.88446 19.0473 1.875 21.5626C1.875 33.3751 15 45.9376 15 45.9376C16.6337 44.3129 18.1678 42.591 19.5937 40.7813" stroke="white" stroke-width="4" stroke-miterlimit="10" stroke-linecap="round" stroke-linejoin="round"/>
<path d="M29.9062 10.3125C25.928 10.3125 22.1127 11.8929 19.2996 14.7059C16.4866 17.5189 14.9063 21.3343 14.9062 25.3125C14.9063 38.8125 29.9062 55.3125 29.9062 55.3125C29.9062 55.3125 44.9062 38.8125 44.9062 25.3125C44.9062 21.3343 43.3259 17.5189 40.5129 14.7059C37.6998 11.8929 33.8845 10.3125 29.9062 10.3125Z" stroke="white" stroke-width="4" stroke-miterlimit="10" stroke-linecap="round" stroke-linejoin="round"/>
<path d="M30 30.9375C33.1066 30.9375 35.625 28.4191 35.625 25.3125C35.625 22.2059 33.1066 19.6875 30 19.6875C26.8934 19.6875 24.375 22.2059 24.375 25.3125C24.375 28.4191 26.8934 30.9375 30 30.9375Z" stroke="white" stroke-width="4" stroke-miterlimit="10" stroke-linecap="round" stroke-linejoin="round"/>
</g>
<defs>
<clipPath id="clip0_3871_1850">
<rect width="60" height="60" fill="white"/>
</clipPath>
</defs>
</svg>
